HIERARCHY
ROOT Hips
{
	OFFSET -0.001795 -0.223333 0.028219
	CHANNELS 6 Xposition Yposition Zposition Zrotation Yrotation Xrotation 
	JOINT LeftUpLeg
	{
		OFFSET 0.069520 -0.091406 -0.006815
		CHANNELS 3 Zrotation Yrotation Xrotation
		JOINT LeftLeg
		{
			OFFSET 0.034277 -0.375199 -0.004496
			CHANNELS 3 Zrotation Yrotation Xrotation
			JOINT LeftFoot
			{
				OFFSET -0.013596 -0.397961 -0.043693
				CHANNELS 3 Zrotation Yrotation Xrotation
				JOINT LeftToe
				{
					OFFSET 0.026358 -0.055791 0.119288
					CHANNELS 3 Zrotation Yrotation Xrotation
					End Site
					{
						OFFSET 0.000000 0.000000 0.000000
					}
				}
			}
		}
	}
	JOINT RightUpLeg
	{
		OFFSET -0.067670 -0.090522 -0.004320
		CHANNELS 3 Zrotation Yrotation Xrotation
		JOINT RightLeg
		{
			OFFSET -0.038290 -0.382569 -0.008850
			CHANNELS 3 Zrotation Yrotation Xrotation
			JOINT RightFoot
			{
				OFFSET 0.015774 -0.398415 -0.042312
				CHANNELS 3 Zrotation Yrotation Xrotation
				JOINT RightToe
				{
					OFFSET -0.025372 -0.048144 0.123348
					CHANNELS 3 Zrotation Yrotation Xrotation
					End Site
					{
						OFFSET 0.000000 0.000000 0.000000
					}
				}
			}
		}
	}
	JOINT Spine
	{
		OFFSET -0.002533 0.108963 -0.026696
		CHANNELS 3 Zrotation Yrotation Xrotation
		JOINT Spine1
		{
			OFFSET 0.005487 0.135180 0.001092
			CHANNELS 3 Zrotation Yrotation Xrotation
			JOINT Spine2
			{
				OFFSET 0.001457 0.052922 0.025425
				CHANNELS 3 Zrotation Yrotation Xrotation
				JOINT Neck
				{
					OFFSET -0.002778 0.213870 -0.042857
					CHANNELS 3 Zrotation Yrotation Xrotation
					JOINT Head
					{
						OFFSET 0.005152 0.064970 0.051349
						CHANNELS 3 Zrotation Yrotation Xrotation
						End Site
						{
							OFFSET 0.000000 0.000000 0.000000
						}
					}
				}
				JOINT LeftShoulder
				{
					OFFSET 0.078845 0.121749 -0.034090
					CHANNELS 3 Zrotation Yrotation Xrotation
					JOINT LeftArm
					{
						OFFSET 0.090977 0.030469 -0.008868
						CHANNELS 3 Zrotation Yrotation Xrotation
						JOINT LeftForeArm
						{
							OFFSET 0.259612 -0.012772 -0.027456
							CHANNELS 3 Zrotation Yrotation Xrotation
							JOINT LeftHand
							{
								OFFSET 0.249234 0.008986 -0.001171
								CHANNELS 3 Zrotation Yrotation Xrotation
								End Site
								{
									OFFSET 0.000000 0.000000 0.000000
								}
							}
						}
					}
				}
				JOINT RightShoulder
				{
					OFFSET -0.081759 0.118833 -0.038615
					CHANNELS 3 Zrotation Yrotation Xrotation
					JOINT RightArm
					{
						OFFSET -0.096012 0.032551 -0.009143
						CHANNELS 3 Zrotation Yrotation Xrotation
						JOINT RightForeArm
						{
							OFFSET -0.253742 -0.013329 -0.021401
							CHANNELS 3 Zrotation Yrotation Xrotation
							JOINT RightHand
							{
								OFFSET -0.255298 0.007772 -0.005559
								CHANNELS 3 Zrotation Yrotation Xrotation
								End Site
								{
									OFFSET 0.000000 0.000000 0.000000
								}
							}
						}
					}
				}
			}
		}
	}
}
MOTION
Frames: 18
Frame Time: 0.050000
0.000000 0.949337 0.000000 -2.255595 -0.729773 -2.779658 3.714286 0.164146 3.072419 -0.820278 0.176118 -3.153953 5.379772 13.232195 11.884632 0.000000 0.000000 0.000000 1.309199 -0.097585 0.668956 -2.775970 0.278467 -0.268394 0.084795 -4.362602 10.395941 0.000000 0.000000 0.000000 5.264798 -0.304320 3.551753 -1.644702 0.760990 4.840070 -3.869976 2.985398 -1.515383 13.488510 -8.614708 -7.615471 0.000000 0.000000 0.000000 -26.395269 -12.429021 3.363365 -46.796901 2.649124 -5.576578 -10.123871 -24.739055 2.920373 0.000000 0.000000 0.000000 27.907525 3.835751 0.894025 52.760640 3.111040 -3.616148 6.306336 23.356875 2.039847 0.000000 0.000000 0.000000 
0.000115 0.948558 0.000690 -2.578409 -1.273348 -2.414527 3.869532 0.170005 3.206331 -0.526355 0.172410 -3.854630 5.690513 13.670362 11.839283 0.000000 0.000000 0.000000 1.596947 -0.040663 0.087971 -2.689378 0.286915 0.051846 0.264596 -3.985699 10.157295 0.000000 0.000000 0.000000 5.916710 -0.271671 2.927129 -1.784866 0.843879 5.659725 -4.544040 3.261424 -2.320286 15.886603 -9.700757 -9.491042 0.000000 0.000000 0.000000 -25.869876 -12.157279 3.082156 -46.840377 2.511796 -5.439687 -10.144196 -25.566361 2.999654 0.000000 0.000000 0.000000 27.364790 3.663246 0.847966 54.491924 2.610107 -3.863754 5.654403 23.932386 1.975468 0.000000 0.000000 0.000000 
0.000172 0.948038 0.001109 -2.424627 -1.649400 -2.335502 3.869699 0.170040 3.135990 -0.868908 0.196811 -3.730420 5.896241 13.957130 11.766938 0.000000 0.000000 0.000000 1.787064 -0.029927 -0.049781 -3.359777 0.361054 0.120958 0.368950 -3.735976 9.913486 0.000000 0.000000 0.000000 5.571015 -0.257004 2.851625 -0.883448 0.372027 4.603482 -5.175823 3.864274 -1.807492 15.343256 -9.407618 -9.276761 0.000000 0.000000 0.000000 -26.012466 -12.391450 3.045454 -46.477126 2.747431 -5.460732 -10.225490 -24.204672 2.842883 0.000000 0.000000 0.000000 27.838437 4.094041 1.349202 53.566647 2.497753 -3.974243 6.654317 23.929025 2.191665 0.000000 0.000000 0.000000 
0.000088 0.948002 0.001444 -2.848071 -1.873008 -2.714753 4.304493 0.189680 3.619008 -0.804726 0.191438 -3.713258 6.007282 14.106224 11.631204 0.000000 0.000000 0.000000 2.460928 -0.039709 -0.062900 -3.721314 0.457707 0.918584 0.415440 -3.623329 9.806536 0.000000 0.000000 0.000000 5.621110 -0.251084 2.856162 -0.753586 0.296453 5.414378 -4.589946 3.259501 -2.556372 15.693746 -9.382395 -10.083537 0.000000 0.000000 0.000000 -25.432649 -11.935996 3.042004 -47.284201 2.582923 -5.547599 -9.919797 -24.515051 2.834448 0.000000 0.000000 0.000000 26.964438 4.833213 1.495514 54.027836 2.728190 -3.724445 6.598588 23.499272 2.092900 0.000000 0.000000 0.000000 
0.000006 0.948159 0.001644 -3.017252 -2.056229 -2.859933 4.508014 0.181678 3.525969 -0.834844 0.179510 -3.172493 6.122917 14.267560 11.537535 0.000000 0.000000 0.000000 2.674572 -0.040769 -0.084107 -3.764861 0.486265 1.246063 0.488109 -3.499252 9.807964 0.000000 0.000000 0.000000 5.501278 -0.250435 2.911194 -0.111619 -0.053593 5.623456 -4.813758 3.388712 -3.115959 16.356259 -10.100747 -9.040863 0.000000 0.000000 0.000000 -25.472905 -12.254132 3.157342 -47.312374 2.226366 -5.349541 -9.841395 -23.602484 2.703385 0.000000 0.000000 0.000000 27.113976 5.015810 1.635563 53.380152 2.940991 -3.550122 7.159032 23.575368 2.204302 0.000000 0.000000 0.000000 
-0.000044 0.948363 0.001855 -3.326326 -2.435493 -3.039840 4.719758 0.195399 3.776695 -0.621560 0.159465 -3.101660 6.310159 14.546619 11.575628 0.000000 0.000000 0.000000 3.127184 -0.043175 -0.130037 -3.970836 0.540968 1.667972 0.647247 -3.238856 9.844213 0.000000 0.000000 0.000000 5.514171 -0.260998 3.067216 0.100803 -0.151114 5.049228 -4.380174 3.272421 -2.563478 17.075590 -10.554795 -9.389977 0.000000 0.000000 0.000000 -25.385547 -12.356363 3.408882 -47.753060 1.789704 -5.348568 -9.479709 -23.343211 2.623272 0.000000 0.000000 0.000000 26.963486 5.803794 2.004878 53.301372 3.589918 -3.279922 6.628200 22.680340 1.998388 0.000000 0.000000 0.000000 
0.000041 0.948657 0.001948 -3.409283 -2.664442 -3.083075 4.823421 0.196744 3.791083 -0.669924 0.159727 -2.954181 6.414922 14.705113 11.656772 0.000000 0.000000 0.000000 3.295570 -0.026213 -0.290104 -4.121561 0.585692 2.019809 0.741947 -3.092783 9.880468 0.000000 0.000000 0.000000 5.428661 -0.256457 3.050762 0.116241 -0.156832 5.167810 -4.211184 3.225212 -2.621536 17.814628 -11.044835 -9.465520 0.000000 0.000000 0.000000 -24.970601 -12.248604 3.420427 -47.942500 1.549973 -5.304701 -9.257810 -23.312138 2.580350 0.000000 0.000000 0.000000 26.847588 5.813020 1.935338 53.439131 4.091875 -3.039797 6.570000 22.226846 1.934943 0.000000 0.000000 0.000000 
0.000193 0.948968 0.002007 -3.585659 -2.820703 -2.958923 5.063498 0.177082 3.534561 -0.784669 0.162226 -2.669710 6.505194 14.836867 11.680668 0.000000 0.000000 0.000000 3.554078 -0.009042 -0.466907 -4.257426 0.606809 2.086746 0.831083 -2.993102 10.025303 0.000000 0.000000 0.000000 5.226306 -0.236802 2.853839 0.158668 -0.172804 4.970627 -3.627382 2.875464 -2.386292 18.826166 -11.613802 -9.966118 0.000000 0.000000 0.000000 -24.912874 -11.838756 3.399396 -48.053047 1.080697 -5.221555 -9.150776 -23.426930 2.595629 0.000000 0.000000 0.000000 26.427305 6.327051 2.054773 53.511462 4.466669 -2.834470 6.428627 21.447996 1.814798 0.000000 0.000000 0.000000 
0.000464 0.949144 0.002040 -3.846494 -3.049711 -2.922905 5.344450 0.168857 3.470933 -0.822577 0.162035 -2.524879 6.628187 15.016380 11.679734 0.000000 0.000000 0.000000 3.794806 -0.011612 -0.484816 -4.218373 0.597016 2.039189 0.965882 -2.812461 10.170858 0.000000 0.000000 0.000000 5.193829 -0.237188 2.862807 0.257579 -0.222279 5.021854 -3.353526 3.098424 -2.557268 20.093232 -12.378537 -10.231235 0.000000 0.000000 0.000000 -24.657998 -11.927491 3.431081 -48.283312 1.041904 -5.217201 -9.231302 -23.422114 2.607133 0.000000 0.000000 0.000000 26.387229 6.498012 2.175194 53.070608 4.578602 -2.750015 6.763017 21.041800 1.831063 0.000000 0.000000 0.000000 
0.000747 0.949246 0.002032 -4.174481 -3.432026 -2.949635 5.532190 0.168819 3.441756 -0.577348 0.131580 -2.260220 6.847695 15.339536 11.666300 0.000000 0.000000 0.000000 4.062997 -0.027317 -0.409501 -4.108106 0.573297 1.935716 1.176647 -2.501064 10.314048 0.000000 0.000000 0.000000 5.294886 -0.243957 2.926454 0.230731 -0.193627 4.604025 -2.971205 3.198883 -2.167583 21.597407 -13.161568 -11.079649 0.000000 0.000000 0.000000 -24.429682 -11.944025 3.533053 -48.623645 0.802243 -5.229299 -9.283332 -23.753715 2.666158 0.000000 0.000000 0.000000 26.234815 6.977201 2.424185 52.730021 4.912978 -2.610747 6.943278 20.332005 1.786057 0.000000 0.000000 0.000000 
0.001116 0.949246 0.002030 -4.373586 -3.515190 -2.945500 5.767360 0.155675 3.261164 -0.654586 0.128860 -1.897151 6.915798 15.433491 11.546575 0.000000 0.000000 0.000000 4.146899 -0.015159 -0.511798 -3.911423 0.563193 2.119527 1.218178 -2.443777 10.352419 0.000000 0.000000 0.000000 5.341357 -0.238775 2.855322 0.190457 -0.174253 4.845869 -2.742031 3.278064 -2.336592 22.206321 -13.522550 -11.183483 0.000000 0.000000 0.000000 -24.341714 -12.153506 3.654353 -48.717257 0.680510 -5.179166 -9.405577 -23.814510 2.697283 0.000000 0.000000 0.000000 26.141039 7.188681 2.549246 52.595104 5.219555 -2.454994 7.002111 19.762541 1.736529 0.000000 0.000000 0.000000 
0.001493 0.949386 0.002083 -4.566160 -3.808091 -3.075276 5.974687 0.158851 3.294858 -0.710364 0.125842 -1.574110 7.066671 15.654540 11.524563 0.000000 0.000000 0.000000 4.216969 -0.034858 -0.375188 -3.720586 0.538605 2.119693 1.380895 -2.198711 10.446303 0.000000 0.000000 0.000000 5.288767 -0.239898 2.908592 0.153495 -0.147011 4.676605 -2.331076 3.255685 -2.140867 22.733088 -13.923171 -11.150302 0.000000 0.000000 0.000000 -24.785879 -11.907223 3.607233 -48.485971 0.937161 -5.294354 -9.535304 -24.113195 2.773415 0.000000 0.000000 0.000000 26.239436 7.414797 2.597871 52.043588 4.942833 -2.547598 7.028941 19.853885 1.742766 0.000000 0.000000 0.000000 
0.001835 0.949593 0.002213 -4.698330 -4.000480 -3.146274 6.166876 0.159393 3.308037 -0.846570 0.134690 -1.361952 7.155957 15.786416 11.536941 0.000000 0.000000 0.000000 4.285327 -0.061621 -0.187427 -3.639742 0.513533 1.927494 1.510966 -2.025872 10.582662 0.000000 0.000000 0.000000 5.192756 -0.247735 3.040056 0.095355 -0.113181 4.748555 -2.042170 3.318094 -2.354625 23.404612 -14.461779 -10.875438 0.000000 0.000000 0.000000 -25.336457 -12.032181 3.701039 -48.032693 1.308453 -5.361693 -9.727147 -24.314273 2.841508 0.000000 0.000000 0.000000 26.610453 7.463654 2.582574 51.129206 4.693615 -2.585170 7.433923 19.843087 1.799885 0.000000 0.000000 0.000000 
0.002072 0.949708 0.002354 -4.728612 -4.199564 -3.348003 6.343606 0.161068 3.279356 -1.139358 0.153826 -0.827587 7.249459 15.921909 11.485895 0.000000 0.000000 0.000000 4.183927 -0.108619 0.183364 -3.448631 0.469955 1.655545 1.643686 -1.824807 10.662400 0.000000 0.000000 0.000000 5.013137 -0.266863 3.356115 0.015834 -0.068067 4.840024 -1.735371 3.266311 -2.501126 23.626378 -14.734065 -10.515740 0.000000 0.000000 0.000000 -25.674605 -11.706894 3.568563 -47.747029 1.489560 -5.400362 -10.040652 -24.735503 2.966841 0.000000 0.000000 0.000000 26.693139 7.667215 2.620947 50.678361 4.353861 -2.668935 7.398456 20.167677 1.820100 0.000000 0.000000 0.000000 
0.002217 0.949927 0.002499 -4.697121 -4.140005 -3.491843 6.327281 0.164057 3.325038 -1.178806 0.153882 -0.639562 7.207840 15.861275 11.494438 0.000000 0.000000 0.000000 4.099701 -0.136744 0.419081 -3.379863 0.453419 1.532570 1.643263 -1.848875 10.733445 0.000000 0.000000 0.000000 4.882225 -0.273664 3.502172 -0.150105 0.022333 4.590210 -1.527935 3.205386 -2.257574 23.549544 -14.695153 -10.549973 0.000000 0.000000 0.000000 -26.032163 -11.750799 3.639336 -47.422889 1.852347 -5.521998 -10.283217 -25.035810 3.064467 0.000000 0.000000 0.000000 26.851174 7.559049 2.522418 50.343620 4.105308 -2.766644 7.165349 20.502159 1.815128 0.000000 0.000000 0.000000 
0.002299 0.950025 0.002639 -4.653023 -4.229305 -3.593519 6.258336 0.169699 3.346235 -1.159233 0.147322 -0.438323 7.251401 15.927076 11.517831 0.000000 0.000000 0.000000 3.923041 -0.157057 0.608251 -3.172830 0.419262 1.392850 1.709474 -1.746173 10.768222 0.000000 0.000000 0.000000 4.774297 -0.284247 3.685835 -0.355173 0.133942 4.626525 -1.405228 3.242693 -2.308393 22.932318 -14.498401 -9.918045 0.000000 0.000000 0.000000 -26.504918 -11.476551 3.473580 -46.785364 2.416001 -5.640613 -10.698155 -25.211826 3.180783 0.000000 0.000000 0.000000 27.327205 7.390880 2.395197 49.770718 3.645246 -2.917880 7.196867 20.937998 1.862263 0.000000 0.000000 0.000000 
0.002298 0.950070 0.002795 -4.511161 -4.378611 -3.591546 6.013052 0.183555 3.473747 -1.020608 0.135887 -0.618181 7.319128 16.030121 11.641888 0.000000 0.000000 0.000000 3.820281 -0.172732 0.742086 -3.281755 0.412348 1.130483 1.792460 -1.609705 10.776715 0.000000 0.000000 0.000000 4.517078 -0.286073 3.795376 -0.476203 0.202751 4.457771 -1.326267 3.292650 -2.297951 22.078561 -14.092192 -9.399108 0.000000 0.000000 0.000000 -27.102408 -11.096898 3.249435 -46.253306 2.964208 -5.769508 -10.801937 -25.199537 3.205974 0.000000 0.000000 0.000000 27.728112 7.128254 2.199364 49.414453 2.995930 -3.153761 7.155504 21.475674 1.907546 0.000000 0.000000 0.000000 
0.002332 0.950130 0.002970 -4.406365 -4.638890 -3.575667 5.866911 0.198281 3.617536 -0.998770 0.138507 -0.810792 7.433595 16.202762 11.791240 0.000000 0.000000 0.000000 3.735861 -0.163608 0.679629 -3.353823 0.423025 1.184977 1.902980 -1.410748 10.735404 0.000000 0.000000 0.000000 4.418434 -0.297396 3.977004 -0.502359 0.221536 4.505220 -1.426984 3.495110 -2.424480 21.228286 -13.690720 -8.817206 0.000000 0.000000 0.000000 -27.400487 -10.998936 3.136486 -45.843178 3.569531 -5.905450 -11.015435 -25.076231 3.233161 0.000000 0.000000 0.000000 28.190712 6.779448 2.001382 49.145008 2.768024 -3.231253 7.035159 21.915413 1.933076 0.000000 0.000000 0.000000 
